<svg width="27" height="34" viewBox="0 0 27 34" fill="none" xmlns="http://www.w3.org/2000/svg">
<path opacity="0.6" d="M12.2129 32.9603L1.03363 21.6457C0.322125 20.9259 0.322125 19.759 1.03363 19.0396C1.7445 18.3201 2.89746 18.3201 3.60827 19.0396L13.5002 29.0513L23.3918 19.0399C24.1029 18.3204 25.2558 18.3204 25.9666 19.0399C26.6778 19.7593 26.6778 20.9262 25.9666 21.646L14.7872 32.9606C14.4316 33.3203 13.966 33.5 13.5002 33.5C13.0342 33.5 12.5683 33.32 12.2129 32.9603Z" fill="white"/>
<path opacity="0.3" d="M12.2129 14.9603L1.03363 3.64568C0.322125 2.92594 0.322125 1.75899 1.03363 1.03959C1.7445 0.320136 2.89746 0.320136 3.60827 1.03959L13.5002 11.0513L23.3918 1.03988C24.1029 0.320427 25.2558 0.320427 25.9666 1.03988C26.6778 1.75934 26.6778 2.92623 25.9666 3.64598L14.7872 14.9606C14.4316 15.3203 13.966 15.5 13.5002 15.5C13.0342 15.5 12.5683 15.32 12.2129 14.9603Z" fill="white"/>
</svg>
