<svg width="21" height="20" viewBox="0 0 21 20" fill="none" xmlns="http://www.w3.org/2000/svg">
<path fill-rule="evenodd" clip-rule="evenodd" d="M10.2273 0C7.44971 0 7.10143 0.0115116 6.01058 0.0601777C4.92201 0.108725 4.17855 0.277786 3.52802 0.525007C2.85549 0.780524 2.28514 1.12246 1.71653 1.67839C1.14797 2.23436 0.798263 2.79203 0.536939 3.44962C0.284099 4.08569 0.111196 4.81263 0.0615454 5.87701C0.0117732 6.94362 0 7.28416 0 10C0 12.7158 0.0117732 13.0564 0.0615454 14.123C0.111196 15.1874 0.284099 15.9143 0.536939 16.5504C0.798263 17.208 1.14797 17.7656 1.71653 18.3216C2.28514 18.8775 2.85549 19.2195 3.52802 19.475C4.17855 19.7222 4.92201 19.8913 6.01058 19.9398C7.10143 19.9885 7.44971 20 10.2273 20C13.0048 20 13.3531 19.9885 14.444 19.9398C15.5325 19.8913 16.276 19.7222 16.9265 19.475C17.5991 19.2195 18.1694 18.8775 18.738 18.3216C19.3066 17.7656 19.6563 17.208 19.9176 16.5504C20.1704 15.9143 20.3433 15.1874 20.393 14.123C20.4428 13.0564 20.4545 12.7158 20.4545 10C20.4545 7.28416 20.4428 6.94362 20.393 5.87701C20.3433 4.81263 20.1704 4.08569 19.9176 3.44962C19.6563 2.79203 19.3066 2.23436 18.738 1.67839C18.1694 1.12246 17.5991 0.780524 16.9265 0.525007C16.276 0.277786 15.5325 0.108725 14.444 0.0601777C13.3531 0.0115116 13.0048 0 10.2273 0ZM10.2273 1.8018C12.9581 1.8018 13.2815 1.812 14.36 1.86011C15.3571 1.90457 15.8986 2.06748 16.259 2.20443C16.7364 2.38583 17.0771 2.60253 17.435 2.95248C17.7929 3.30239 18.0145 3.63551 18.2 4.10229C18.3401 4.45466 18.5067 4.98415 18.5522 5.95914C18.6014 7.0136 18.6118 7.32989 18.6118 10C18.6118 12.6701 18.6014 12.9864 18.5522 14.0409C18.5067 15.0158 18.3401 15.5453 18.2 15.8977C18.0145 16.3645 17.7929 16.6976 17.435 17.0475C17.0771 17.3975 16.7364 17.6142 16.259 17.7956C15.8986 17.9325 15.3571 18.0954 14.36 18.1399C13.2817 18.188 12.9583 18.1982 10.2273 18.1982C7.49628 18.1982 7.17288 18.188 6.09458 18.1399C5.09743 18.0954 4.5559 17.9325 4.19552 17.7956C3.71814 17.6142 3.37745 17.3975 3.01958 17.0475C2.66172 16.6976 2.44006 16.3645 2.25453 15.8977C2.11447 15.5453 1.94785 15.0158 1.90239 14.0409C1.85318 12.9864 1.84275 12.6701 1.84275 10C1.84275 7.32989 1.85318 7.0136 1.90239 5.95914C1.94785 4.98415 2.11447 4.45466 2.25453 4.10229C2.44006 3.63551 2.66168 3.30239 3.01958 2.95248C3.37745 2.60253 3.71814 2.38583 4.19552 2.20443C4.5559 2.06748 5.09743 1.90457 6.09458 1.86011C7.173 1.812 7.49648 1.8018 10.2273 1.8018ZM4.97543 10C4.97543 7.16393 7.32674 4.86487 10.2273 4.86487C13.1278 4.86487 15.4791 7.16393 15.4791 10C15.4791 12.8361 13.1278 15.1351 10.2273 15.1351C7.32674 15.1351 4.97543 12.8361 4.97543 10ZM10.2273 13.3333C8.34447 13.3333 6.81818 11.841 6.81818 10C6.81818 8.15904 8.34447 6.66667 10.2273 6.66667C12.1101 6.66667 13.6364 8.15904 13.6364 10C13.6364 11.841 12.1101 13.3333 10.2273 13.3333ZM15.6866 5.86197C16.3644 5.86197 16.9139 5.32474 16.9139 4.66199C16.9139 3.99924 16.3644 3.46197 15.6866 3.46197C15.0088 3.46197 14.4594 3.99924 14.4594 4.66199C14.4594 5.32474 15.0088 5.86197 15.6866 5.86197Z" fill="white"/>
</svg>
