<svg width="13" height="17" viewBox="0 0 13 17" fill="none" xmlns="http://www.w3.org/2000/svg">
<path fill-rule="evenodd" clip-rule="evenodd" d="M0.030938 6.12151C0.341634 2.75793 3.03099 0.122836 6.26825 0.0043268C9.96319 -0.131611 13 2.95312 13 6.78029C13 7.21947 12.9599 7.6482 12.8831 8.06647C12.8831 8.06647 12.8697 8.14315 12.8396 8.27909C12.7394 8.74964 12.5924 9.19928 12.402 9.62452C11.7472 11.2418 10.2405 13.9362 6.85957 16.8641C6.6491 17.0453 6.34509 17.0453 6.13796 16.8641C2.75705 13.9327 1.25034 11.2383 0.598877 9.62801C0.411791 9.20276 0.261455 8.74964 0.16123 8.28257C0.127822 8.14315 0.117799 8.06995 0.117799 8.06995C0.00421143 7.44603 -0.0325376 6.79423 0.030938 6.12151ZM3.34169 6.86046C3.34169 8.67993 4.75486 10.1543 6.49876 10.1543C8.24267 10.1543 9.65584 8.67993 9.65584 6.86046C9.65584 5.04099 8.24267 3.56659 6.49876 3.56659C4.75486 3.56659 3.34169 5.04099 3.34169 6.86046Z" fill="#9B9B9B"/>
</svg>
