<svg width="18" height="18" viewBox="0 0 18 18" fill="none" xmlns="http://www.w3.org/2000/svg">
<path fill-rule="evenodd" clip-rule="evenodd" d="M1 9C1 4.58171 4.58171 1 9 1C13.4183 1 17 4.58171 17 9C17 13.4183 13.4183 17 9 17C4.58171 17 1 13.4183 1 9ZM2.77779 9C2.77779 12.4364 5.56354 15.2222 9 15.2222C12.4365 15.2222 15.2222 12.4365 15.2222 9C15.2222 5.56354 12.4365 2.77779 9 2.77779C5.56354 2.77779 2.77779 5.56358 2.77779 9Z" fill="#9B9B9B"/>
<path d="M9 0.5C4.30557 0.5 0.5 4.30557 0.5 9H1.5C1.5 4.85785 4.85785 1.5 9 1.5V0.5ZM17.5 9C17.5 4.30557 13.6944 0.5 9 0.5V1.5C13.1421 1.5 16.5 4.85785 16.5 9H17.5ZM9 17.5C13.6944 17.5 17.5 13.6944 17.5 9H16.5C16.5 13.1421 13.1421 16.5 9 16.5V17.5ZM0.5 9C0.5 13.6944 4.30557 17.5 9 17.5V16.5C4.85785 16.5 1.5 13.1421 1.5 9H0.5ZM9 14.7222C5.83969 14.7222 3.27779 12.1603 3.27779 9H2.27779C2.27779 12.7126 5.2874 15.7222 9 15.7222V14.7222ZM14.7222 9C14.7222 12.1603 12.1603 14.7222 9 14.7222V15.7222C12.7126 15.7222 15.7222 12.7126 15.7222 9H14.7222ZM9 3.27779C12.1603 3.27779 14.7222 5.83968 14.7222 9H15.7222C15.7222 5.2874 12.7126 2.27779 9 2.27779V3.27779ZM3.27779 9C3.27779 5.83972 5.83969 3.27779 9 3.27779V2.27779C5.2874 2.27779 2.27779 5.28744 2.27779 9H3.27779Z" fill="#9B9B9B"/>
<path d="M9.70228 9.26206V5H8V10.034L10.8092 13L12 11.688L9.70228 9.26206Z" fill="#9B9B9B"/>
</svg>
