<svg width="21" height="20" viewBox="0 0 21 20" fill="none" xmlns="http://www.w3.org/2000/svg">
<path fill-rule="evenodd" clip-rule="evenodd" d="M11.4708 20H1.67434C1.05067 20 0.54541 19.5057 0.54541 18.8961V1.10384C0.54541 0.494104 1.05075 0 1.67434 0H19.8711C20.4945 0 21 0.494104 21 1.10384V18.8961C21 19.5057 20.4945 20 19.8711 20H14.6588V12.2549H17.3175L17.7156 9.23649H14.6588V7.30943C14.6588 6.43554 14.9069 5.84 16.1886 5.84L17.8232 5.83931V3.13962C17.5405 3.10284 16.5702 3.02065 15.4412 3.02065C13.0844 3.02065 11.4708 4.4273 11.4708 7.0105V9.23649H8.80526V12.2549H11.4708V20V20Z" fill="white"/>
</svg>
