<svg width="28" height="20" viewBox="0 0 28 20" fill="none" xmlns="http://www.w3.org/2000/svg">
<path fill-rule="evenodd" clip-rule="evenodd" d="M3.95049 0.321833C3.95049 0.321833 7.37353 0 13.9783 0C20.583 0 23.7173 0.321833 23.7173 0.321833C23.7173 0.321833 26.1197 0.406639 27.0587 2.2293C27.0587 2.2293 27.9977 3.55182 27.9977 10C27.9977 10 28.0542 13.9919 27.6093 16.1141C27.1643 18.2363 26.1818 18.8561 26.1818 18.8561C26.1818 18.8561 25.5515 19.4759 24.1611 19.6449C22.7708 19.8139 18.2624 20 13.9783 20C13.9783 20 6.13547 19.9955 3.49373 19.5531C0.851982 19.1108 0.480864 16.6115 0.480864 16.6115C0.480864 16.6115 -0.60108 10.2848 0.480864 3.39556C0.480864 3.39556 0.794022 0.643733 3.95049 0.321833V0.321833ZM18.8293 9.84375L11.0168 13.6899V5.9976L18.8293 9.84375Z" fill="white"/>
</svg>
